USFL
nRows=115
nColumns=2
inDegrees=yes
endheader
time	med_gas_r	
3.86492	 56.650974	
3.93649	 56.218173	
4.00806	 56.222181	
4.07964	 57.389323	
4.15121	 57.280272	
4.22278	 57.221923	
4.29435	 56.867809	
4.36593	 56.986166	
4.4375	 57.123458	
4.50907	 57.397072	
4.58065	 57.382089	
4.65222	 57.266720	
4.72379	 57.309931	
4.79536	 57.110871	
4.86694	 57.085625	
4.93851	 57.323139	
5.01008	 56.506489	
5.08165	 56.247805	
5.15323	 56.531443	
5.2248	 56.631153	
5.29637	 56.670375	
5.36794	 56.489104	
5.43952	 56.426126	
5.51109	 57.555960	
5.58266	 57.194323	
5.65423	 57.065834	
5.72581	 57.066009	
5.79738	 57.076154	
5.86895	 57.041816	
5.94052	 56.922461	
6.0121	 57.089618	
6.08367	 57.250887	
6.15524	 57.076076	
6.22681	 57.190184	
6.29839	 56.901703	
6.36996	 52.201968	
6.44153	 52.020566	
6.5131	 49.435714	
6.58468	 47.071311	
6.65625	 46.845221	
6.72782	 46.282917	
6.7994	 43.972332	
6.87097	 43.698792	
6.94254	 41.068910	
7.01411	 40.817674	
7.08569	 40.682212	
7.15726	 40.422262	
7.22883	 40.213936	
7.3004	 40.063708	
7.37198	 39.600391	
7.44355	 39.378524	
7.51512	 39.422469	
7.58669	 39.236775	
7.65827	 39.123954	
7.72984	 39.126808	
7.80141	 39.412510	
7.87298	 39.386228	
7.94456	 39.579763	
8.01613	 39.813523	
8.0877	 39.937512	
8.15927	 40.258423	
8.23085	 40.271241	
8.30242	 40.379313	
8.37399	 40.285057	
8.44556	 40.400599	
8.51714	 40.524518	
8.58871	 40.313877	
8.66028	 40.285598	
8.73185	 40.410119	
8.80343	 40.358969	
8.875	 40.353977	
8.94657	 40.411725	
9.01815	 40.364981	
9.08972	 40.319282	
9.16129	 40.334524	
9.23286	 40.382454	
9.30444	 40.372925	
9.37601	 40.338543	
9.44758	 40.518804	
9.51915	 40.624117	
9.59073	 40.638534	
9.6623	 40.701752	
9.73387	 40.722184	
9.80544	 40.739335	
9.87702	 40.771692	
9.94859	 40.777752	
10.0202	 40.819048	
10.0917	 40.702117	
10.1633	 40.697843	
10.2349	 40.672832	
10.3065	 40.763189	
10.378	 40.710552	
10.4496	 40.658324	
10.5212	 40.763539	
10.5927	 40.904817	
10.6643	 40.967471	
10.7359	 40.987283	
10.8075	 41.100402	
10.879	 41.212322	
10.9506	 41.142206	
11.0222	 41.151549	
11.0937	 41.204491	
11.1653	 41.227260	
11.2369	 41.291727	
11.3085	 41.481128	
11.38	 41.327042	
11.4516	 41.412393	
11.5232	 41.610135	
11.5948	 43.071838	
11.6663	 47.018024	
11.7379	 47.525875	
11.8095	 47.171334	
11.881	 47.658515	
11.9526	 47.788327	
12.0242	 47.997013	
